<svg xmlns="http://www.w3.org/2000/svg" width="639" height="251" fill="none" viewBox="0 0 639 251">
  <path fill="#fff" d="M2.688 106.703h11.796V84.515h22.93V75.18h-22.93V60.062h25.118v-9.727H2.688v56.368Zm60.976.859c12.656 0 20.742-8.125 20.742-21.797v-.078c0-13.555-8.242-21.719-20.781-21.719-12.5 0-20.703 8.242-20.703 21.72v.077c0 13.633 8.008 21.797 20.742 21.797Zm.039-8.945c-5.625 0-9.18-4.649-9.18-12.852v-.078c0-8.086 3.594-12.773 9.102-12.773 5.547 0 9.18 4.687 9.18 12.773v.078c0 8.164-3.555 12.852-9.102 12.852Zm26.602 8.086h11.406V83.265c0-6.094 3.281-9.453 8.906-9.453 1.641 0 3.203.234 4.141.625v-10.04a12.926 12.926 0 0 0-3.281-.429c-4.883 0-8.282 3.008-9.532 8.164h-.234v-7.304H90.305v41.875Zm47.304 14.531c12.579 0 20.43-6.367 20.43-15.703V64.828h-11.406v7.148h-.235c-2.265-4.883-6.836-8.008-12.734-8.008-10.586 0-17.148 7.93-17.148 21.29v.038c0 13.008 6.484 20.821 16.953 20.821 6.054 0 10.742-2.774 12.929-7.149h.235v6.407c0 4.687-3.125 7.734-9.024 7.734-4.765 0-7.812-1.797-8.711-3.867l-.117-.274h-11.093l.039.352c1.093 6.719 8.359 11.914 19.882 11.914Zm-.195-23.477c-5.703 0-9.297-4.648-9.297-12.187v-.04c0-7.5 3.633-12.109 9.297-12.109 5.547 0 9.258 4.65 9.258 12.11v.04c0 7.5-3.672 12.186-9.258 12.186Zm47.188 9.805c11.953 0 17.734-7.07 19.023-13.242l.117-.43h-10.469l-.078.234c-.82 2.344-3.672 4.922-8.359 4.922-5.82 0-9.453-3.906-9.57-10.586h28.828v-3.515c0-12.656-7.696-20.977-19.961-20.977-12.266 0-20.117 8.516-20.117 21.836v.04c0 13.398 7.773 21.718 20.586 21.718Zm-.274-35.078c4.727 0 8.125 3.008 8.828 8.79h-17.773c.742-5.665 4.258-8.79 8.945-8.79Zm41.172 35.078c6.055 0 10.664-3.047 12.891-8.008h.234v7.149h11.406V50.335h-11.406v21.758h-.234c-2.266-5.078-6.953-8.125-12.891-8.125-10.547 0-17.031 8.125-17.031 21.758v.04c0 13.593 6.484 21.796 17.031 21.796Zm3.828-9.453c-5.703 0-9.258-4.727-9.258-12.344v-.039c0-7.656 3.594-12.305 9.258-12.305 5.508 0 9.336 4.766 9.336 12.305v.04c0 7.577-3.789 12.343-9.336 12.343Zm47.227 8.594h11.406V73.421h8.047v-8.593h-8.32v-2.93c0-3.008 1.679-4.61 5.468-4.61 1.055 0 2.149.04 2.93.196v-7.54c-1.328-.273-3.633-.468-5.742-.468-9.883 0-13.789 3.79-13.789 11.992v3.36h-5.703v8.593h5.703v33.282Zm41.718.859c12.657 0 20.743-8.125 20.743-21.797v-.078c0-13.555-8.243-21.719-20.782-21.719-12.5 0-20.703 8.242-20.703 21.72v.077c0 13.633 8.008 21.797 20.742 21.797Zm.039-8.945c-5.624 0-9.179-4.649-9.179-12.852v-.078c0-8.086 3.594-12.773 9.101-12.773 5.547 0 9.18 4.687 9.18 12.773v.078c0 8.164-3.555 12.852-9.102 12.852Zm26.602 8.086h11.406V83.265c0-6.094 3.282-9.453 8.907-9.453 1.64 0 3.203.234 4.14.625v-10.04a12.859 12.859 0 0 0-3.281-.429c-4.883 0-8.281 3.008-9.531 8.164h-.235v-7.304h-11.406v41.875Z"/>
  <path fill="#1A66FF" d="M28.078 199.679c15.703 0 25-9.297 25-24.648v-6.485H28.703v8.789h12.891l-.039.821c-.313 6.953-5.586 11.523-13.282 11.523-9.375 0-15.312-7.226-15.312-19.453v-.039c0-11.953 5.586-18.828 14.883-18.828 6.367 0 10.86 3.164 12.734 8.633l.156.39H52.57l-.117-.547c-1.875-10.585-11.094-18.476-24.648-18.476-16.524 0-26.875 10.898-26.875 28.945v.039c0 18.36 10.312 29.336 27.148 29.336Zm43.906-.312c5.508 0 9.961-2.617 12.344-6.914h.234v6.25H95.97v-28.711c0-8.438-6.992-14.024-17.813-14.024-11.054 0-17.695 5.547-18.32 13.282l-.039.468h10.43l.078-.351c.547-2.696 3.125-4.688 7.383-4.688 4.453 0 6.874 2.305 6.874 6.016v2.578l-10.35.625c-10.392.664-16.29 5.117-16.29 12.734v.078c0 7.383 5.664 12.657 14.062 12.657Zm-2.773-13.242v-.079c0-2.968 2.305-4.843 6.72-5.117l8.631-.547v3.008c0 4.375-3.75 7.656-8.867 7.656-3.945 0-6.484-1.836-6.484-4.921Zm34.141 12.578h11.406v-25.274c0-4.726 2.93-8.008 7.265-8.008 4.219 0 6.758 2.657 6.758 7.149v26.133h10.977v-25.469c0-4.649 2.851-7.813 7.187-7.813 4.414 0 6.836 2.657 6.836 7.5v25.782h11.407V170.07c0-8.438-5.508-14.102-13.711-14.102-6.133 0-11.133 3.36-13.008 8.633h-.235c-1.406-5.508-5.664-8.633-11.523-8.633-5.625 0-10 3.125-11.719 7.891h-.234v-7.031h-11.406v41.875Zm88.125.859c11.953 0 17.734-7.07 19.023-13.242l.117-.43h-10.469l-.078.235c-.82 2.343-3.672 4.921-8.359 4.921-5.82 0-9.453-3.906-9.57-10.586h28.828v-3.515c0-12.656-7.696-20.977-19.961-20.977-12.266 0-20.117 8.516-20.117 21.836v.039c0 13.399 7.773 21.719 20.586 21.719Zm-.274-35.078c4.727 0 8.125 3.008 8.828 8.789h-17.773c.742-5.664 4.258-8.789 8.945-8.789Zm42.5 34.219h21.524c16.914 0 26.875-10.508 26.875-28.399v-.078c0-17.851-10-27.891-26.875-27.891h-21.524v56.368Zm11.797-9.766v-36.875h8.32c10.352 0 16.25 6.445 16.25 18.203v.078c0 12.188-5.703 18.594-16.25 18.594h-8.32Zm62.305 10.625c11.953 0 17.734-7.07 19.023-13.242l.117-.43h-10.468l-.079.235c-.82 2.343-3.671 4.921-8.359 4.921-5.82 0-9.453-3.906-9.57-10.586h28.828v-3.515c0-12.656-7.695-20.977-19.961-20.977-12.266 0-20.117 8.516-20.117 21.836v.039c0 13.399 7.773 21.719 20.586 21.719Zm-.274-35.078c4.727 0 8.125 3.008 8.828 8.789h-17.773c.742-5.664 4.258-8.789 8.945-8.789Zm35.157 34.219h12.851l14.375-41.875H358l-8.633 31.797h-.234l-8.75-31.797h-12.188l14.493 41.875Zm48.789.859c11.953 0 17.734-7.07 19.023-13.242l.117-.43h-10.469l-.078.235c-.82 2.343-3.672 4.921-8.359 4.921-5.82 0-9.453-3.906-9.57-10.586h28.828v-3.515c0-12.656-7.696-20.977-19.961-20.977-12.266 0-20.117 8.516-20.117 21.836v.039c0 13.399 7.773 21.719 20.586 21.719Zm-.274-35.078c4.727 0 8.125 3.008 8.828 8.789h-17.773c.742-5.664 4.258-8.789 8.945-8.789Zm25.938 34.219h11.406v-56.368h-11.406v56.368Zm38.32.859c12.656 0 20.742-8.125 20.742-21.797v-.078c0-13.555-8.242-21.719-20.781-21.719-12.5 0-20.703 8.242-20.703 21.719v.078c0 13.633 8.008 21.797 20.742 21.797Zm.039-8.945c-5.625 0-9.18-4.649-9.18-12.852v-.078c0-8.086 3.594-12.773 9.102-12.773 5.547 0 9.18 4.687 9.18 12.773v.078c0 8.164-3.555 12.852-9.102 12.852Zm26.602 21.758h11.406v-20.821h.234c2.266 4.961 6.992 8.008 12.969 8.008 10.469 0 16.953-8.203 16.953-21.797v-.039c0-13.633-6.484-21.758-17.109-21.758-5.938 0-10.508 3.086-12.774 8.164h-.273v-7.304h-11.406v55.547Zm20.703-22.266c-5.547 0-9.336-4.766-9.336-12.305v-.039c0-7.578 3.789-12.344 9.336-12.344 5.664 0 9.257 4.649 9.257 12.305v.039c0 7.617-3.593 12.344-9.257 12.344Zm45.859 9.453c11.953 0 17.734-7.07 19.024-13.242l.117-.43h-10.469l-.078.235c-.82 2.343-3.672 4.921-8.36 4.921-5.82 0-9.453-3.906-9.57-10.586h28.828v-3.515c0-12.656-7.695-20.977-19.961-20.977-12.265 0-20.117 8.516-20.117 21.836v.039c0 13.399 7.774 21.719 20.586 21.719Zm-.273-35.078c4.726 0 8.125 3.008 8.828 8.789h-17.774c.743-5.664 4.258-8.789 8.946-8.789Zm25.664 34.219h11.406v-23.438c0-6.094 3.281-9.453 8.906-9.453 1.641 0 3.203.234 4.141.625v-10.039a12.88 12.88 0 0 0-3.281-.43c-4.883 0-8.282 3.008-9.532 8.164h-.234v-7.304h-11.406v41.875Zm46.367.859c10.781 0 18.32-5.391 18.32-13.594v-.039c0-6.172-3.594-9.609-12.344-11.445l-7.109-1.524c-4.219-.898-5.664-2.304-5.664-4.453v-.039c0-2.695 2.461-4.453 6.406-4.453 4.219 0 6.68 2.266 7.071 5.274l.039.312h10.507v-.391c-.273-7.343-6.484-13.242-17.617-13.242-10.664 0-17.539 5.157-17.539 13.125v.039c0 6.25 4.102 10.313 12.227 12.032l7.109 1.484c4.102.898 5.508 2.187 5.508 4.414v.039c0 2.695-2.617 4.375-6.914 4.375-4.57 0-7.031-1.914-7.774-5.195l-.078-.352h-11.132l.039.352c.898 7.929 7.343 13.281 18.945 13.281Z"/>
  <mask id="a" width="173" height="163" x="194" y="39" maskUnits="userSpaceOnUse" style="mask-type:alpha">
    <path fill="#000" d="m194 41.702 109-2 64 162.001-109.5-.001-63.5-160Z"/>
  </mask>
  <g mask="url(#a)">
    <path fill="#04061F" d="M2.688 106.703h11.797V84.515h22.93V75.18h-22.93V60.062h25.117v-9.727H2.688v56.368Zm60.977.859c12.656 0 20.742-8.125 20.742-21.797v-.078c0-13.555-8.242-21.719-20.782-21.719-12.5 0-20.703 8.242-20.703 21.72v.077c0 13.633 8.008 21.797 20.743 21.797Zm.039-8.945c-5.625 0-9.18-4.649-9.18-12.852v-.078c0-8.086 3.594-12.773 9.101-12.773 5.547 0 9.18 4.687 9.18 12.773v.078c0 8.164-3.555 12.852-9.101 12.852Zm26.601 8.086h11.406V83.265c0-6.094 3.282-9.453 8.907-9.453 1.64 0 3.203.234 4.14.625v-10.04a12.859 12.859 0 0 0-3.281-.429c-4.883 0-8.281 3.008-9.531 8.164h-.235v-7.304H90.305v41.875Zm47.305 14.531c12.578 0 20.43-6.367 20.43-15.703V64.828h-11.407v7.148h-.234c-2.266-4.883-6.836-8.008-12.734-8.008-10.586 0-17.149 7.93-17.149 21.29v.038c0 13.008 6.484 20.821 16.953 20.821 6.055 0 10.742-2.774 12.93-7.149h.234v6.407c0 4.687-3.125 7.734-9.023 7.734-4.766 0-7.813-1.797-8.711-3.867l-.117-.274h-11.094l.039.352c1.094 6.719 8.359 11.914 19.883 11.914Zm-.195-23.477c-5.704 0-9.297-4.648-9.297-12.187v-.04c0-7.5 3.632-12.109 9.297-12.109 5.546 0 9.257 4.65 9.257 12.11v.04c0 7.5-3.672 12.186-9.257 12.186Zm47.187 9.805c11.953 0 17.734-7.07 19.023-13.242l.118-.43h-10.469l-.078.234c-.821 2.344-3.672 4.922-8.36 4.922-5.82 0-9.453-3.906-9.57-10.586h28.828v-3.515c0-12.656-7.695-20.977-19.961-20.977-12.265 0-20.117 8.516-20.117 21.836v.04c0 13.398 7.774 21.718 20.586 21.718Zm-.273-35.078c4.726 0 8.125 3.008 8.828 8.79h-17.774c.742-5.665 4.258-8.79 8.946-8.79Zm41.171 35.078c6.055 0 10.665-3.047 12.891-8.008h.234v7.149h11.407V50.335h-11.407v21.758h-.234c-2.266-5.078-6.953-8.125-12.891-8.125-10.546 0-17.031 8.125-17.031 21.758v.04c0 13.593 6.485 21.796 17.031 21.796Zm3.829-9.453c-5.704 0-9.258-4.727-9.258-12.344v-.039c0-7.656 3.594-12.305 9.258-12.305 5.507 0 9.336 4.766 9.336 12.305v.04c0 7.577-3.79 12.343-9.336 12.343Zm47.226 8.594h11.406V73.421h8.047v-8.593h-8.32v-2.93c0-3.008 1.68-4.61 5.469-4.61 1.054 0 2.148.04 2.929.196v-7.54c-1.328-.273-3.632-.468-5.742-.468-9.883 0-13.789 3.79-13.789 11.992v3.36h-5.703v8.593h5.703v33.282Zm41.719.859c12.656 0 20.742-8.125 20.742-21.797v-.078c0-13.555-8.242-21.719-20.781-21.719-12.5 0-20.703 8.242-20.703 21.72v.077c0 13.633 8.008 21.797 20.742 21.797Zm.039-8.945c-5.625 0-9.18-4.649-9.18-12.852v-.078c0-8.086 3.594-12.773 9.102-12.773 5.547 0 9.18 4.687 9.18 12.773v.078c0 8.164-3.555 12.852-9.102 12.852Zm26.602 8.086h11.406V83.265c0-6.094 3.281-9.453 8.906-9.453 1.641 0 3.203.234 4.141.625v-10.04a12.933 12.933 0 0 0-3.282-.429c-4.882 0-8.281 3.008-9.531 8.164h-.234v-7.304h-11.406v41.875Z"/>
    <path fill="#fff" d="M2.688 106.703h-1v1h1v-1Zm11.797 0v1h1v-1h-1Zm0-22.188v-1h-1v1h1Zm22.93 0v1h1v-1h-1Zm0-9.336h1v-1h-1v1Zm-22.93 0h-1v1h1v-1Zm0-15.117v-1h-1v1h1Zm25.117 0v1h1v-1h-1Zm0-9.727h1v-1h-1v1Zm-36.914 0v-1h-1v1h1Zm0 57.368h11.797v-2H2.688v2Zm12.797-1V84.515h-2v22.188h2Zm-1-21.188h22.93v-2h-22.93v2Zm23.93-1V75.18l-2 .001v9.336h2Zm-1-10.336h-22.93v2h22.93v-2Zm-21.93 1V60.062h-2V75.18h2Zm-1-14.117h25.117v-2H14.485v2Zm26.117-1v-9.727h-2v9.727h2Zm-1-10.727H2.688v2h36.914v-2Zm-37.914 1v56.368h2V50.335h-2Zm61.977 58.227c6.546 0 12.011-2.107 15.837-6.078 3.822-3.967 5.905-9.687 5.905-16.719h-2c0 6.64-1.961 11.818-5.345 15.332-3.382 3.509-8.288 5.465-14.397 5.465v2Zm21.742-22.797v-.078h-2v.078h2Zm0-.078c0-6.98-2.126-12.68-5.971-16.64-3.848-3.96-9.319-6.079-15.811-6.079v2c6.048 0 10.968 1.964 14.376 5.473 3.411 3.512 5.406 8.672 5.406 15.246h2ZM63.625 62.968c-6.475 0-11.927 2.14-15.758 6.112-3.828 3.968-5.945 9.665-5.945 16.607h2c0-6.535 1.986-11.696 5.384-15.219 3.395-3.519 8.295-5.5 14.319-5.5v-2Zm-21.703 22.72v.077h2v-.078h-2Zm0 .077c0 7.01 2.062 12.73 5.875 16.703 3.816 3.977 9.282 6.094 15.868 6.094v-2c-6.149 0-11.054-1.966-14.425-5.478-3.376-3.518-5.318-8.697-5.318-15.319h-2Zm21.782 11.852c-2.502 0-4.493-1.017-5.891-2.938-1.426-1.96-2.289-4.94-2.289-8.914h-2c0 4.23.914 7.674 2.672 10.09 1.785 2.454 4.384 3.762 7.508 3.762v-2Zm-8.18-11.852v-.078h-2v.078h2Zm0-.078c0-3.91.871-6.874 2.294-8.83 1.399-1.924 3.373-2.943 5.807-2.943v-2c-3.073 0-5.649 1.324-7.425 3.766-1.75 2.408-2.676 5.832-2.676 10.007h2Zm8.101-11.773c2.457 0 4.452 1.021 5.864 2.946 1.436 1.957 2.316 4.918 2.316 8.827h2c0-4.177-.936-7.602-2.703-10.01-1.791-2.442-4.387-3.763-7.477-3.763v2Zm8.18 11.773v.078h2v-.078h-2Zm0 .078c0 3.954-.863 6.936-2.281 8.902-1.393 1.93-3.366 2.95-5.82 2.95v2c3.092 0 5.67-1.324 7.441-3.78 1.746-2.418 2.66-5.862 2.66-10.072h-2Zm18.5 20.938h-1v1h1v-1Zm11.406 0v1h1v-1h-1Zm13.047-32.266-.384.923 1.384.577v-1.5h-1Zm0-10.04h1v-.763l-.737-.2-.263.963Zm-12.812 7.735v1h.786l.186-.764-.972-.236Zm-.235 0h-1v1h1v-1Zm0-7.304h1v-1h-1v1Zm-11.406 0v-1h-1v1h1Zm0 42.875h11.406v-2H90.305v2Zm12.406-1V83.265h-2v23.438h2Zm0-23.438c0-2.874.773-4.96 2.069-6.322 1.289-1.356 3.226-2.13 5.838-2.13v-2c-3.013 0-5.53.904-7.287 2.751-1.751 1.84-2.62 4.482-2.62 7.701h2Zm7.907-8.453c1.581 0 2.993.23 3.756.548l.769-1.846c-1.112-.463-2.825-.702-4.525-.702v2Zm5.14-.375v-10.04h-2v10.04h2Zm-.737-11.003a13.854 13.854 0 0 0-3.544-.466v2c1.153 0 2.236.181 3.018.395l.526-1.929Zm-3.544-.466c-2.658 0-4.967.824-6.782 2.392-1.806 1.561-3.058 3.802-3.721 6.537l1.944.471c.587-2.42 1.659-4.263 3.085-5.495 1.417-1.224 3.249-1.905 5.474-1.905v-2Zm-9.531 8.164h-.235v2h.235v-2Zm.765 1v-7.304h-2v7.304h2Zm-1-8.304H90.305v2h11.406v-2Zm-12.406 1v41.875h2V64.828h-2Zm68.735 0h1v-1h-1v1Zm-11.407 0v-1h-1v1h1Zm0 7.148v1h1v-1h-1Zm-.234 0-.907.421.269.58h.638v-1Zm0 26.992v-1h-.618l-.277.553.895.447Zm.234 0h1v-1h-1v1Zm-17.734 10.274-.919.394.002.004.917-.398Zm-.117-.274.919-.394-.26-.606h-.659v1Zm-11.094 0v-1h-1.117l.123 1.111.994-.111Zm.039.352-.994.11.003.025.004.025.987-.16Zm19.883 12.914c6.447 0 11.791-1.631 15.547-4.562 3.777-2.948 5.883-7.165 5.883-12.141h-2c0 4.359-1.821 7.994-5.114 10.564-3.314 2.587-8.186 4.139-14.316 4.139v2Zm21.43-16.703V64.828h-2v40.703h2Zm-1-41.703h-11.407v2h11.407v-2Zm-12.407 1v7.148h2v-7.148h-2Zm1 6.148h-.234v2.001h.234v-2Zm.673.58c-2.427-5.232-7.348-8.588-13.641-8.588v2c5.503 0 9.723 2.894 11.827 7.43l1.814-.842Zm-13.641-8.588c-5.565 0-10.149 2.097-13.321 6.005-3.151 3.883-4.828 9.453-4.828 16.284h2c0-6.528 1.604-11.602 4.381-15.024 2.756-3.396 6.746-5.265 11.768-5.265v-2Zm-18.149 22.29v.038h2v-.039h-2Zm0 .038c0 6.66 1.659 12.113 4.777 15.922 3.138 3.833 7.672 5.899 13.176 5.899v-2c-4.964 0-8.907-1.841-11.628-5.166-2.742-3.349-4.325-8.305-4.325-14.655h-2Zm17.953 21.821c6.368 0 11.44-2.933 13.824-7.702l-1.789-.894c-1.99 3.981-6.293 6.596-12.035 6.596v2Zm12.93-7.149h.234v-2h-.234v2Zm-.766-1v6.407h2v-6.407h-2Zm0 6.407c0 2.111-.696 3.752-1.963 4.877-1.283 1.138-3.274 1.857-6.06 1.857v2c3.112 0 5.633-.804 7.387-2.362 1.77-1.57 2.636-3.797 2.636-6.372h-2Zm-8.023 6.734c-4.598 0-7.129-1.733-7.794-3.265l-1.834.796c1.132 2.608 4.694 4.469 9.628 4.469v-2Zm-7.792-3.261-.117-.274-1.838.788.117.274 1.838-.788Zm-1.036-.88h-11.094v2h11.094v-2Zm-12.088 1.111.039.351 1.988-.221-.039-.351-1.988.221Zm.046.401c1.209 7.428 9.125 12.754 20.87 12.754v-2c-11.302 0-17.918-5.065-18.896-11.075l-1.974.321Zm20.675-12.723c-2.55 0-4.577-1.024-5.994-2.874-1.438-1.88-2.303-4.689-2.303-8.313h-2c0 3.915.931 7.2 2.715 9.53 1.807 2.358 4.428 3.657 7.582 3.657v-2Zm-8.297-11.187v-.04h-2v.04h2Zm0-.04c0-3.6.873-6.39 2.315-8.255 1.421-1.837 3.45-2.854 5.982-2.854v-2c-3.133 0-5.753 1.29-7.564 3.63-1.79 2.316-2.733 5.58-2.733 9.48h2Zm8.297-11.109c2.465 0 4.487 1.02 5.918 2.87 1.449 1.872 2.339 4.664 2.339 8.24h2c0-3.885-.965-7.148-2.758-9.465-1.811-2.34-4.418-3.645-7.499-3.645v2Zm8.257 11.11v.04h2v-.04h-2Zm0 .04c0 3.598-.882 6.41-2.328 8.297-1.426 1.861-3.447 2.89-5.929 2.89v2c3.103 0 5.711-1.316 7.517-3.674 1.786-2.33 2.74-5.613 2.74-9.514h-2Zm57.953 8.75-.964-.264-.008.03-.006.03.978.203Zm.118-.43.964.262.345-1.263h-1.309v1Zm-10.469 0v-1h-.721l-.228.683.949.316Zm-.078.233.944.33.002-.006.002-.007-.948-.317Zm-17.93-5.664v-1h-1.018l.018 1.018 1-.018Zm28.828 0v1h1v-1h-1Zm-10.937-7.187v1h1.129l-.137-1.12-.992.12Zm-17.774 0-.991-.13-.148 1.13h1.139v-1Zm9.219 27.289c12.433 0 18.618-7.409 20.002-14.038l-1.957-.408c-1.194 5.715-6.572 12.446-18.045 12.446v2Zm19.988-13.98.117-.429-1.929-.526-.117.43 1.929.525Zm-.847-1.692h-10.469v2h10.469v-2Zm-11.418.684-.078.234 1.897.633.079-.235-1.898-.632Zm-.073.22c-.665 1.901-3.107 4.252-7.416 4.252v2c5.067 0 8.328-2.806 9.304-5.592l-1.888-.66Zm-7.416 4.252c-2.675 0-4.752-.89-6.184-2.46-1.444-1.586-2.33-3.974-2.386-7.143l-2 .035c.062 3.51 1.05 6.416 2.907 8.454 1.869 2.051 4.518 3.114 7.663 3.114v-2Zm-9.57-8.586h28.828v-2h-28.828v2Zm29.828-1v-3.515h-2v3.515h2Zm0-3.515c0-6.53-1.988-12.038-5.653-15.92-3.672-3.89-8.94-6.057-15.308-6.057v2c5.898 0 10.611 1.994 13.853 5.43 3.248 3.44 5.108 8.42 5.108 14.547h2Zm-20.961-21.977c-6.375 0-11.684 2.22-15.393 6.245-3.702 4.017-5.724 9.737-5.724 16.591h2c0-6.466 1.904-11.664 5.194-15.235 3.283-3.563 8.033-5.6 13.923-5.6v-2Zm-21.117 22.836v.04h2v-.04h-2Zm0 .04c0 6.89 2.001 12.587 5.761 16.57 3.767 3.989 9.195 6.148 15.825 6.148v-2c-6.183 0-11.047-2.001-14.37-5.521-3.33-3.527-5.216-8.689-5.216-15.197h-2Zm21.313-12.36c2.142 0 3.912.676 5.228 1.946 1.324 1.278 2.276 3.241 2.607 5.964l1.985-.24c-.372-3.059-1.471-5.492-3.203-7.163-1.74-1.68-4.033-2.507-6.617-2.507v2Zm8.828 6.79h-17.774v2h17.774v-2Zm-16.782 1.13c.348-2.656 1.332-4.626 2.693-5.927 1.354-1.294 3.149-1.993 5.261-1.993v-2c-2.576 0-4.882.864-6.644 2.548-1.755 1.678-2.899 4.102-3.293 7.111l1.983.26Zm62.016 18.15v-1h-.647l-.265.59.912.41Zm.234 0h1v-1h-1v1Zm0 7.149h-1v1h1v-1Zm11.407 0v1h1v-1h-1Zm0-56.368h1v-1h-1v1Zm-11.407 0v-1h-1v1h1Zm0 21.758v1h1v-1h-1Zm-.234 0-.913.408.264.592h.649v-1ZM225.5 108.562c6.431 0 11.408-3.262 13.803-8.598l-1.824-.82c-2.058 4.586-6.3 7.418-11.979 7.418v2Zm12.891-8.008h.234v-2h-.234v2Zm-.766-1v7.149h2v-7.149h-2Zm1 8.149h11.407v-2h-11.407v2Zm12.407-1V50.335h-2v56.368h2Zm-1-57.368h-11.407v2h11.407v-2Zm-12.407 1v21.758h2V50.335h-2Zm1 20.758h-.234v2h.234v-2Zm.679.593c-2.432-5.452-7.486-8.718-13.804-8.718v2c5.558 0 9.879 2.83 11.978 7.533l1.826-.815ZM225.5 62.968c-5.556 0-10.113 2.154-13.256 6.148-3.121 3.966-4.775 9.65-4.775 16.61h2c0-6.672 1.588-11.867 4.347-15.373 2.735-3.476 6.694-5.385 11.684-5.385v-2Zm-18.031 22.758v.04h2v-.04h-2Zm0 .04c0 6.941 1.655 12.633 4.774 16.612 3.142 4.008 7.698 6.184 13.257 6.184v-2c-4.987 0-8.946-1.926-11.683-5.418-2.76-3.52-4.348-8.726-4.348-15.378h-2Zm21.86 11.343c-2.543 0-4.559-1.038-5.968-2.916-1.433-1.909-2.29-4.76-2.29-8.428h-2c0 3.95.92 7.27 2.69 9.63 1.794 2.39 4.407 3.714 7.568 3.714v-2Zm-8.258-11.344v-.039h-2v.04h2Zm0-.039c0-3.686.866-6.526 2.302-8.42 1.412-1.863 3.428-2.885 5.956-2.885v-2c-3.137 0-5.75 1.303-7.55 3.677-1.778 2.346-2.708 5.658-2.708 9.628h2Zm8.258-11.305c2.436 0 4.48 1.042 5.941 2.936 1.477 1.916 2.395 4.76 2.395 8.37h2c0-3.93-.997-7.239-2.811-9.59-1.83-2.374-4.454-3.716-7.525-3.716v2Zm8.336 11.306v.04h2v-.04h-2Zm0 .04c0 3.631-.91 6.484-2.382 8.403-1.455 1.897-3.497 2.94-5.954 2.94v2c3.089 0 5.715-1.34 7.541-3.722 1.809-2.359 2.795-5.677 2.795-9.622h-2Zm38.89 20.936h-1v1h1v-1Zm11.406 0v1h1v-1h-1Zm0-33.282v-1h-1v1h1Zm8.047 0v1h1v-1h-1Zm0-8.593h1v-1h-1v1Zm-8.32 0h-1v1h1v-1Zm8.398-7.344-.196.98 1.196.24v-1.22h-1Zm0-7.54h1v-.814l-.798-.165-.202.98Zm-19.531 14.884v1h1v-1h-1Zm-5.703 0v-1h-1v1h1Zm0 8.593h-1v1h1v-1Zm5.703 0h1v-1h-1v1Zm0 34.282h11.406v-2h-11.406v2Zm12.406-1V73.421h-2v33.282h2Zm-1-32.282h8.047v-2h-8.047v2Zm9.047-1v-8.593h-2v8.593h2Zm-1-9.593h-8.32v2h8.32v-2Zm-7.32 1v-2.93h-2v2.93h2Zm0-2.93c0-1.319.362-2.15.969-2.678.636-.552 1.721-.93 3.5-.93v-2c-2.011 0-3.66.42-4.811 1.421-1.18 1.025-1.658 2.498-1.658 4.187h2Zm4.469-3.61c1.054 0 2.059.041 2.733.176l.393-1.96c-.889-.178-2.071-.215-3.126-.215v2Zm3.929-.804v-7.54h-2v7.54h2Zm-.798-8.519c-1.417-.29-3.795-.489-5.944-.489v2c2.07 0 4.302.193 5.541.448l.403-1.959Zm-5.944-.489c-5.034 0-8.782.958-11.266 3.174-2.512 2.24-3.523 5.574-3.523 9.818h2c0-3.959.942-6.62 2.854-8.326 1.94-1.73 5.086-2.666 9.935-2.666v-2Zm-14.789 12.992v3.36h2v-3.36h-2Zm1 2.36h-5.703v2h5.703v-2Zm-6.703 1v8.593h2v-8.593h-2Zm1 9.593h5.703v-2h-5.703v2Zm4.703-1v33.282h2V73.421h-2Zm42.719 35.141c6.547 0 12.011-2.107 15.837-6.078 3.822-3.967 5.905-9.687 5.905-16.719h-2c0 6.64-1.96 11.818-5.345 15.332-3.381 3.509-8.288 5.465-14.397 5.465v2Zm21.742-22.797v-.078h-2v.078h2Zm0-.078c0-6.98-2.126-12.68-5.971-16.64-3.847-3.96-9.319-6.079-15.81-6.079v2c6.048 0 10.967 1.964 14.375 5.473 3.411 3.512 5.406 8.672 5.406 15.246h2Zm-21.781-22.719c-6.476 0-11.927 2.14-15.759 6.112-3.828 3.968-5.944 9.665-5.944 16.607h2c0-6.535 1.985-11.696 5.383-15.219 3.396-3.519 8.295-5.5 14.32-5.5v-2Zm-21.703 22.72v.077h2v-.078h-2Zm0 .077c0 7.01 2.062 12.73 5.874 16.703 3.816 3.977 9.282 6.094 15.868 6.094v-2c-6.149 0-11.054-1.966-14.425-5.478-3.375-3.518-5.317-8.697-5.317-15.319h-2Zm21.781 11.852c-2.502 0-4.492-1.017-5.891-2.938-1.425-1.96-2.289-4.94-2.289-8.914h-2c0 4.23.914 7.674 2.672 10.09 1.785 2.454 4.385 3.762 7.508 3.762v-2Zm-8.18-11.852v-.078h-2v.078h2Zm0-.078c0-3.91.871-6.874 2.294-8.83 1.399-1.924 3.374-2.943 5.808-2.943v-2c-3.074 0-5.65 1.324-7.425 3.766-1.751 2.408-2.677 5.832-2.677 10.007h2Zm8.102-11.773c2.457 0 4.452 1.021 5.864 2.946 1.436 1.957 2.316 4.918 2.316 8.827h2c0-4.177-.937-7.602-2.704-10.01-1.791-2.442-4.386-3.763-7.476-3.763v2Zm8.18 11.773v.078h2v-.078h-2Zm0 .078c0 3.954-.863 6.936-2.282 8.902-1.393 1.93-3.365 2.95-5.82 2.95v2c3.092 0 5.67-1.324 7.442-3.78 1.745-2.418 2.66-5.862 2.66-10.072h-2Zm18.5 20.938h-1v1h1v-1Zm11.406 0v1h1v-1h-1Zm13.047-32.266-.385.923 1.385.577v-1.5h-1Zm0-10.04h1v-.763l-.737-.2-.263.963Zm-12.813 7.735v1h.787l.185-.764-.972-.236Zm-.234 0h-1v1h1v-1Zm0-7.304h1v-1h-1v1Zm-11.406 0v-1h-1v1h1Zm0 42.875h11.406v-2h-11.406v2Zm12.406-1V83.265h-2v23.438h2Zm0-23.438c0-2.874.772-4.96 2.068-6.322 1.29-1.356 3.226-2.13 5.838-2.13v-2c-3.013 0-5.53.904-7.287 2.751-1.751 1.84-2.619 4.482-2.619 7.701h2Zm7.906-8.453c1.581 0 2.993.23 3.756.548l.769-1.846c-1.112-.463-2.825-.702-4.525-.702v2Zm5.141-.375v-10.04h-2v10.04h2Zm-.737-11.003a13.862 13.862 0 0 0-3.545-.466v2c1.153 0 2.237.181 3.019.395l.526-1.929Zm-3.545-.466c-2.657 0-4.966.824-6.781 2.392-1.807 1.561-3.059 3.802-3.722 6.537l1.944.471c.587-2.42 1.659-4.263 3.085-5.495 1.418-1.224 3.249-1.905 5.474-1.905v-2Zm-9.531 8.164h-.234v2h.234v-2Zm.766 1v-7.304h-2v7.304h2Zm-1-8.304h-11.406v2h11.406v-2Zm-12.406 1v41.875h2V64.828h-2Z"/>
    <path fill="#04061F" d="M28.08 199.679c15.702 0 25-9.297 25-24.648v-6.485H28.703v8.789h12.89l-.039.821c-.312 6.953-5.586 11.523-13.28 11.523-9.376 0-15.314-7.226-15.314-19.453v-.039c0-11.953 5.586-18.828 14.883-18.828 6.367 0 10.86 3.164 12.735 8.633l.156.39H52.57l-.117-.547c-1.875-10.585-11.094-18.476-24.649-18.476-16.523 0-26.875 10.898-26.875 28.945v.039c0 18.36 10.313 29.336 27.15 29.336Zm43.905-.312c5.508 0 9.961-2.617 12.344-6.914h.234v6.25H95.97v-28.711c0-8.438-6.992-14.024-17.812-14.024-11.055 0-17.696 5.547-18.32 13.282l-.04.468h10.43l.078-.351c.547-2.696 3.125-4.688 7.383-4.688 4.453 0 6.875 2.305 6.875 6.016v2.578l-10.352.625c-10.39.664-16.289 5.117-16.289 12.734v.078c0 7.383 5.664 12.657 14.063 12.657Zm-2.774-13.242v-.079c0-2.968 2.305-4.843 6.72-5.117l8.632-.547v3.008c0 4.375-3.75 7.656-8.867 7.656-3.946 0-6.485-1.836-6.485-4.921Zm34.141 12.578h11.406v-25.274c0-4.726 2.93-8.008 7.266-8.008 4.219 0 6.758 2.657 6.758 7.149v26.133h10.976v-25.469c0-4.649 2.852-7.813 7.188-7.813 4.414 0 6.836 2.657 6.836 7.5v25.782h11.406V170.07c0-8.438-5.508-14.102-13.711-14.102-6.133 0-11.133 3.36-13.008 8.633h-.234c-1.406-5.508-5.664-8.633-11.524-8.633-5.625 0-10 3.125-11.718 7.891h-.235v-7.031h-11.406v41.875Zm88.125.859c11.953 0 17.734-7.07 19.023-13.242l.118-.43h-10.469l-.078.235c-.821 2.343-3.672 4.921-8.36 4.921-5.82 0-9.453-3.906-9.57-10.586h28.828v-3.515c0-12.656-7.695-20.977-19.961-20.977-12.265 0-20.117 8.516-20.117 21.836v.039c0 13.399 7.774 21.719 20.586 21.719Zm-.273-35.078c4.726 0 8.125 3.008 8.828 8.789h-17.774c.742-5.664 4.258-8.789 8.946-8.789Zm42.5 34.219h21.523c16.914 0 26.875-10.508 26.875-28.399v-.078c0-17.851-10-27.891-26.875-27.891h-21.523v56.368Zm11.796-9.766v-36.875h8.321c10.351 0 16.25 6.445 16.25 18.203v.078c0 12.188-5.703 18.594-16.25 18.594H245.5Zm62.305 10.625c11.953 0 17.735-7.07 19.024-13.242l.117-.43h-10.469l-.078.235c-.82 2.343-3.672 4.921-8.359 4.921-5.821 0-9.454-3.906-9.571-10.586h28.828v-3.515c0-12.656-7.695-20.977-19.961-20.977-12.265 0-20.117 8.516-20.117 21.836v.039c0 13.399 7.774 21.719 20.586 21.719Zm-.273-35.078c4.726 0 8.125 3.008 8.828 8.789h-17.774c.743-5.664 4.258-8.789 8.946-8.789Zm35.156 34.219h12.852l14.375-41.875H358l-8.632 31.797h-.235l-8.75-31.797h-12.187l14.492 41.875Zm48.789.859c11.953 0 17.734-7.07 19.023-13.242l.118-.43h-10.469l-.078.235c-.821 2.343-3.672 4.921-8.36 4.921-5.82 0-9.453-3.906-9.57-10.586h28.828v-3.515c0-12.656-7.695-20.977-19.961-20.977-12.265 0-20.117 8.516-20.117 21.836v.039c0 13.399 7.774 21.719 20.586 21.719Zm-.273-35.078c4.726 0 8.125 3.008 8.828 8.789h-17.774c.742-5.664 4.258-8.789 8.946-8.789Zm25.937 34.219h11.406v-56.368h-11.406v56.368Zm38.32.859c12.657 0 20.743-8.125 20.743-21.797v-.078c0-13.555-8.243-21.719-20.782-21.719-12.5 0-20.703 8.242-20.703 21.719v.078c0 13.633 8.008 21.797 20.742 21.797Zm.039-8.945c-5.625 0-9.179-4.649-9.179-12.852v-.078c0-8.086 3.594-12.773 9.101-12.773 5.547 0 9.18 4.687 9.18 12.773v.078c0 8.164-3.555 12.852-9.102 12.852Zm26.602 21.758h11.406v-20.821h.235c2.265 4.961 6.992 8.008 12.968 8.008 10.469 0 16.954-8.203 16.954-21.797v-.039c0-13.633-6.485-21.758-17.11-21.758-5.937 0-10.508 3.086-12.773 8.164h-.274v-7.304h-11.406v55.547Zm20.703-22.266c-5.547 0-9.336-4.766-9.336-12.305v-.039c0-7.578 3.789-12.344 9.336-12.344 5.664 0 9.258 4.649 9.258 12.305v.039c0 7.617-3.594 12.344-9.258 12.344Zm45.86 9.453c11.953 0 17.734-7.07 19.023-13.242l.117-.43h-10.469l-.078.235c-.82 2.343-3.672 4.921-8.359 4.921-5.82 0-9.453-3.906-9.57-10.586h28.828v-3.515c0-12.656-7.696-20.977-19.961-20.977-12.266 0-20.117 8.516-20.117 21.836v.039c0 13.399 7.773 21.719 20.586 21.719Zm-.274-35.078c4.727 0 8.125 3.008 8.828 8.789h-17.773c.742-5.664 4.258-8.789 8.945-8.789Zm25.664 34.219h11.406v-23.438c0-6.094 3.282-9.453 8.907-9.453 1.64 0 3.203.234 4.14.625v-10.039a12.836 12.836 0 0 0-3.281-.43c-4.883 0-8.281 3.008-9.531 8.164h-.235v-7.304h-11.406v41.875Zm46.367.859c10.782 0 18.321-5.391 18.321-13.594v-.039c0-6.172-3.594-9.609-12.344-11.445l-7.109-1.524c-4.219-.898-5.665-2.304-5.665-4.453v-.039c0-2.695 2.461-4.453 6.407-4.453 4.218 0 6.679 2.266 7.07 5.274l.039.312h10.508v-.391c-.274-7.343-6.484-13.242-17.617-13.242-10.664 0-17.539 5.157-17.539 13.125v.039c0 6.25 4.101 10.313 12.226 12.032l7.11 1.484c4.101.898 5.507 2.187 5.507 4.414v.039c0 2.695-2.617 4.375-6.914 4.375-4.57 0-7.031-1.914-7.773-5.195l-.078-.352h-11.133l.039.352c.898 7.929 7.344 13.281 18.945 13.281Z"/>
    <path fill="#004DE5" d="M53.08 168.546h1v-1h-1v1Zm-24.376 0v-1h-1v1h1Zm0 8.789h-1v1h1v-1Zm12.89 0 1 .048.05-1.048h-1.05v1Zm-.039.821-.999-.048v.003l1 .045Zm-.976-18.164-.946.324.008.024.01.023.928-.371Zm.156.39-.929.372.252.628h.677v-1Zm11.836 0v1h1.237l-.259-1.209-.978.209Zm-.117-.547-.985.175.003.017.004.018.978-.21ZM28.08 200.679c8.048 0 14.575-2.386 19.092-6.856 4.518-4.472 6.908-10.913 6.908-18.792h-2c0 7.472-2.259 13.355-6.315 17.37-4.058 4.016-10.03 6.278-17.685 6.278v2Zm26-25.648v-6.485h-2v6.485h2Zm-1-7.485H28.704v2H53.08v-2Zm-25.375 1v8.789h2v-8.789h-2Zm1 9.789h12.89v-2h-12.89v2Zm11.891-1.047-.039.82 1.998.095.04-.82-1.999-.095Zm-.039.823c-.145 3.221-1.43 5.838-3.528 7.658-2.107 1.828-5.103 2.91-8.754 2.91v2c4.044 0 7.532-1.203 10.064-3.399 2.54-2.203 4.048-5.347 4.216-9.079l-1.998-.09Zm-12.282 10.568c-4.406 0-7.937-1.685-10.39-4.764-2.473-3.106-3.923-7.725-3.923-13.689h-2c0 6.263 1.52 11.37 4.36 14.935 2.86 3.59 6.984 5.518 11.953 5.518v-2Zm-14.313-18.453v-.039h-2v.039h2Zm0-.039c0-5.836 1.366-10.295 3.738-13.274 2.348-2.948 5.767-4.554 10.145-4.554v-2c-4.918 0-8.94 1.831-11.71 5.309-2.745 3.447-4.173 8.402-4.173 14.519h2Zm13.883-17.828c3.016 0 5.526.748 7.487 2.091 1.958 1.34 3.427 3.314 4.302 5.866l1.892-.649c-1-2.916-2.715-5.259-5.064-6.868-2.346-1.606-5.266-2.44-8.617-2.44v2Zm11.806 8.004.156.391 1.857-.743-.156-.391-1.857.743Zm1.085 1.019h11.836v-2H40.735v2Zm12.814-1.209-.118-.547-1.955.419.117.547 1.956-.419Zm-.11-.512c-1.97-11.124-11.659-19.302-25.634-19.302v2c13.134 0 21.884 7.603 23.664 17.651l1.97-.349Zm-25.634-19.302c-8.489 0-15.49 2.806-20.364 8.022-4.867 5.209-7.51 12.712-7.51 21.923h2c0-8.835 2.531-15.805 6.971-20.557 4.433-4.745 10.87-7.388 18.903-7.388v-2ZM-.07 170.304v.039h2v-.039h-2Zm0 .039c0 9.363 2.632 16.964 7.528 22.234 4.906 5.278 11.978 8.102 20.621 8.102v-2c-8.194 0-14.696-2.664-19.156-7.464-4.468-4.808-6.993-11.875-6.993-20.872h-2Zm84.4 22.11v-1h-.59l-.286.515.875.485Zm.233 0h1v-1h-1v1Zm0 6.25h-1v1h1v-1Zm11.406 0v1h1v-1h-1ZM59.836 169.25l.997.083v-.003l-.997-.08Zm-.039.468-.996-.083-.09 1.083h1.086v-1Zm10.43 0v1h.802l.174-.783-.976-.217Zm.078-.351.976.217.002-.009.002-.009-.98-.199Zm14.258 3.906.06.998.94-.057v-.941h-1Zm-10.352.625-.06-.998h-.003l.063.998Zm10.352 6.484h1v-1.065l-1.063.067.063.998Zm-12.578 19.985c5.846 0 10.647-2.793 13.218-7.429l-1.749-.97c-2.195 3.957-6.3 6.399-11.469 6.399v2Zm12.344-6.914h.234v-2h-.234v2Zm-.766-1v6.25h2v-6.25h-2Zm1 7.25H95.97v-2H84.563v2Zm12.406-1v-28.711h-2v28.711h2Zm0-28.711c0-4.522-1.886-8.318-5.228-10.961-3.32-2.625-8.012-4.063-13.584-4.063v2c5.248 0 9.463 1.355 12.343 3.632 2.86 2.26 4.47 5.476 4.47 9.392h2Zm-18.812-15.024c-5.688 0-10.34 1.427-13.674 3.942-3.348 2.526-5.308 6.108-5.643 10.259l1.993.161c.29-3.583 1.963-6.642 4.855-8.823 2.906-2.192 7.102-3.539 12.47-3.539v-2ZM58.84 169.166l-.039.469 1.993.166.04-.468-1.994-.167Zm.957 1.552h10.43v-2h-10.43v2Zm11.406-.783.078-.351-1.952-.434-.078.351 1.952.434Zm.082-.369c.422-2.079 2.45-3.887 6.403-3.887v-2c-4.56 0-7.69 2.177-8.363 5.489l1.96.398Zm6.403-3.887c2.063 0 3.515.534 4.441 1.362.91.814 1.434 2.025 1.434 3.654h2c0-2.082-.687-3.879-2.1-5.145-1.4-1.252-3.385-1.871-5.775-1.871v2Zm5.875 5.016v2.578h2v-2.578h-2Zm.94 1.58-10.352.625.121 1.996 10.351-.625-.12-1.996Zm-10.355.625c-5.306.339-9.6 1.651-12.59 3.967-3.03 2.348-4.636 5.663-4.636 9.765h2c0-3.515 1.344-6.234 3.861-8.184 2.557-1.981 6.407-3.227 11.492-3.552l-.127-1.996Zm-17.226 13.732v.078h2v-.078h-2Zm0 .078c0 3.961 1.526 7.398 4.21 9.837 2.677 2.433 6.444 3.82 10.853 3.82v-2c-3.99 0-7.254-1.251-9.508-3.3-2.248-2.043-3.555-4.934-3.555-8.357h-2Zm13.29-.585v-.079h-2v.079h2Zm0-.079c0-1.191.445-2.103 1.316-2.778.911-.706 2.368-1.211 4.464-1.341l-.124-1.996c-2.318.144-4.22.713-5.565 1.756-1.385 1.073-2.092 2.582-2.092 4.359h2Zm5.78-4.119 8.634-.547-.126-1.996-8.632.547.124 1.996Zm7.571-1.545v3.008h2v-3.008h-2Zm0 3.008c0 3.694-3.163 6.656-7.867 6.656v2c5.53 0 9.867-3.599 9.867-8.656h-2Zm-7.867 6.656c-1.833 0-3.22-.428-4.122-1.104-.87-.651-1.363-1.582-1.363-2.817h-2c0 1.85.778 3.38 2.164 4.418 1.353 1.014 3.208 1.503 5.321 1.503v-2Zm27.656 8.657h-1v1h1v-1Zm11.406 0v1h1v-1h-1Zm14.024 0h-1v1h1v-1Zm10.976 0v1h1v-1h-1Zm14.024 0h-1v1h1v-1Zm11.406 0v1h1v-1h-1Zm-26.719-34.102v1h.706l.236-.665-.942-.335Zm-.234 0-.969.247.192.753h.777v-1Zm-23.242-.742v1h.702l.238-.661-.94-.339Zm-.235 0h-1v1h1v-1Zm0-7.031h1v-1h-1v1Zm-11.406 0v-1h-1v1h1Zm0 42.875h11.406v-2h-11.406v2Zm12.406-1v-25.274h-2v25.274h2Zm0-25.274c0-2.158.667-3.908 1.749-5.106 1.075-1.189 2.616-1.902 4.517-1.902v-2c-2.435 0-4.526.929-6.001 2.562-1.467 1.624-2.265 3.878-2.265 6.446h2Zm6.266-7.008c1.895 0 3.299.591 4.235 1.578.942.994 1.523 2.509 1.523 4.571h2c0-2.431-.689-4.49-2.071-5.947-1.389-1.464-3.363-2.202-5.687-2.202v2Zm5.758 6.149v26.133h2V172.57h-2Zm1 27.133h10.976v-2h-10.976v2Zm11.976-1v-25.469h-2v25.469h2Zm0-25.469c0-2.121.649-3.819 1.706-4.975 1.05-1.147 2.57-1.838 4.482-1.838v-2c-2.424 0-4.498.892-5.958 2.489-1.452 1.588-2.23 3.797-2.23 6.324h2Zm6.188-6.813c2.003 0 3.413.597 4.334 1.608.935 1.025 1.502 2.625 1.502 4.892h2c0-2.576-.644-4.726-2.024-6.24-1.393-1.528-3.401-2.26-5.812-2.26v2Zm5.836 6.5v25.782h2v-25.782h-2Zm1 26.782h11.406v-2h-11.406v2Zm12.406-1V170.07h-2v28.633h2Zm0-28.633c0-4.44-1.453-8.228-4.062-10.912-2.612-2.687-6.31-4.19-10.649-4.19v2c3.864 0 7.022 1.329 9.215 3.584 2.195 2.258 3.496 5.52 3.496 9.518h2Zm-14.711-15.102c-6.511 0-11.919 3.585-13.95 9.298l1.884.67c1.719-4.834 6.311-7.968 12.066-7.968v-2Zm-13.008 8.633h-.234v2h.234v-2Zm.735.753c-.754-2.952-2.288-5.316-4.463-6.937-2.173-1.618-4.921-2.449-8.03-2.449v2c2.751 0 5.061.732 6.835 2.053 1.769 1.319 3.067 3.271 3.72 5.827l1.938-.494Zm-12.493-9.386c-6.026 0-10.791 3.371-12.659 8.552l1.881.678c1.569-4.351 5.555-7.23 10.778-7.23v-2Zm-11.718 7.891h-.235v2h.235v-2Zm.765 1v-7.031h-2v7.031h2Zm-1-8.031h-11.406v2h11.406v-2Zm-12.406 1v41.875h2v-41.875h-2ZM210.5 186.32l-.964-.263-.008.029-.006.029.978.205Zm.118-.43.964.263.345-1.263h-1.309v1Zm-10.469 0v-1h-.721l-.228.684.949.316Zm-.078.235.944.33.002-.007.002-.007-.948-.316Zm-17.93-5.665v-1h-1.018l.018 1.018 1-.018Zm28.828 0v1h1v-1h-1Zm-10.937-7.187v1h1.129l-.137-1.121-.992.121Zm-17.774 0-.991-.13-.148 1.13h1.139v-1Zm9.219 27.289c12.433 0 18.618-7.409 20.002-14.038l-1.957-.409c-1.194 5.715-6.572 12.447-18.045 12.447v2Zm19.988-13.979.117-.43-1.929-.526-.117.43 1.929.526Zm-.847-1.693h-10.469v2h10.469v-2Zm-11.418.684-.078.234 1.897.633.079-.235-1.898-.632Zm-.073.22c-.665 1.901-3.107 4.252-7.416 4.252v2c5.067 0 8.328-2.805 9.304-5.591l-1.888-.661Zm-7.416 4.252c-2.675 0-4.752-.89-6.184-2.461-1.444-1.585-2.33-3.973-2.386-7.142l-2 .035c.062 3.511 1.05 6.416 2.907 8.454 1.869 2.051 4.518 3.114 7.663 3.114v-2Zm-9.57-8.586h28.828v-2h-28.828v2Zm29.828-1v-3.515h-2v3.515h2Zm0-3.515c0-6.53-1.988-12.038-5.653-15.921-3.672-3.89-8.94-6.056-15.308-6.056v2c5.898 0 10.611 1.994 13.853 5.429 3.248 3.441 5.108 8.421 5.108 14.548h2Zm-20.961-21.977c-6.375 0-11.684 2.22-15.393 6.245-3.702 4.017-5.724 9.737-5.724 16.591h2c0-6.466 1.904-11.664 5.194-15.235 3.283-3.563 8.033-5.601 13.923-5.601v-2Zm-21.117 22.836v.039h2v-.039h-2Zm0 .039c0 6.89 2.001 12.588 5.761 16.571 3.767 3.989 9.195 6.148 15.825 6.148v-2c-6.183 0-11.047-2.001-14.37-5.521-3.33-3.527-5.216-8.689-5.216-15.198h-2Zm21.313-12.359c2.142 0 3.912.676 5.228 1.946 1.324 1.278 2.276 3.241 2.607 5.964l1.985-.242c-.372-3.058-1.471-5.49-3.203-7.161-1.74-1.679-4.033-2.507-6.617-2.507v2Zm8.828 6.789h-17.774v2h17.774v-2Zm-16.782 1.13c.348-2.655 1.332-4.625 2.693-5.926 1.354-1.294 3.149-1.993 5.261-1.993v-2c-2.576 0-4.882.864-6.644 2.548-1.755 1.677-2.899 4.102-3.293 7.111l1.983.26Zm50.454 25.3h-1v1h1v-1Zm0-56.368v-1h-1v1h1Zm11.796 46.602h-1v1h1v-1Zm0-36.875v-1h-1v1h1Zm-11.796 47.641h21.523v-2h-21.523v2Zm21.523 0c8.668 0 15.674-2.699 20.506-7.803 4.826-5.097 7.369-12.47 7.369-21.596h-2c0 8.765-2.438 15.592-6.821 20.221-4.376 4.622-10.808 7.178-19.054 7.178v2Zm27.875-29.399v-.078h-2v.078h2Zm0-.078c0-9.108-2.554-16.36-7.392-21.337-4.842-4.98-11.847-7.554-20.483-7.554v2c8.239 0 14.672 2.447 19.049 6.948 4.38 4.506 6.826 11.2 6.826 19.943h2Zm-27.875-28.891h-21.523v2h21.523v-2Zm-22.523 1v56.368h2v-56.368h-2Zm13.796 46.602v-36.875h-2v36.875h2Zm-1-35.875h8.321v-2H245.5v2Zm8.321 0c4.962 0 8.726 1.538 11.263 4.361 2.551 2.839 3.987 7.119 3.987 12.842h2c0-6.034-1.514-10.856-4.5-14.179-3-3.339-7.361-5.024-12.75-5.024v2Zm15.25 17.203v.078h2v-.078h-2Zm0 .078c0 5.955-1.395 10.33-3.922 13.208-2.507 2.855-6.263 4.386-11.328 4.386v2c5.481 0 9.85-1.672 12.831-5.067 2.962-3.372 4.419-8.294 4.419-14.527h-2Zm-15.25 17.594H245.5v2h8.321v-2Zm73.008-1.617-.965-.263-.008.029-.006.029.979.205Zm.117-.43.965.263.344-1.263h-1.309v1Zm-10.469 0v-1h-.721l-.228.684.949.316Zm-.078.235.944.33.002-.007.003-.007-.949-.316Zm-17.93-5.665v-1h-1.017l.017 1.018 1-.018Zm28.828 0v1h1v-1h-1Zm-10.937-7.187v1h1.129l-.136-1.121-.993.121Zm-17.774 0-.991-.13-.148 1.13h1.139v-1Zm9.219 27.289c12.433 0 18.618-7.409 20.002-14.038l-1.957-.409c-1.194 5.715-6.572 12.447-18.045 12.447v2Zm19.988-13.979.118-.43-1.93-.526-.117.43 1.929.526Zm-.847-1.693h-10.469v2h10.469v-2Zm-11.418.684-.078.234 1.898.633.078-.235-1.898-.632Zm-.073.22c-.665 1.901-3.107 4.252-7.415 4.252v2c5.066 0 8.328-2.805 9.303-5.591l-1.888-.661Zm-7.415 4.252c-2.676 0-4.753-.89-6.185-2.461-1.444-1.585-2.33-3.973-2.386-7.142l-2 .035c.062 3.511 1.051 6.416 2.908 8.454 1.869 2.051 4.518 3.114 7.663 3.114v-2Zm-9.571-8.586h28.828v-2h-28.828v2Zm29.828-1v-3.515h-2v3.515h2Zm0-3.515c0-6.53-1.988-12.038-5.653-15.921-3.672-3.89-8.94-6.056-15.308-6.056v2c5.898 0 10.611 1.994 13.853 5.429 3.249 3.441 5.108 8.421 5.108 14.548h2Zm-20.961-21.977c-6.375 0-11.684 2.22-15.393 6.245-3.702 4.017-5.724 9.737-5.724 16.591h2c0-6.466 1.904-11.664 5.195-15.235 3.283-3.563 8.032-5.601 13.922-5.601v-2Zm-21.117 22.836v.039h2v-.039h-2Zm0 .039c0 6.89 2.001 12.588 5.761 16.571 3.767 3.989 9.196 6.148 15.825 6.148v-2c-6.183 0-11.047-2.001-14.37-5.521-3.33-3.527-5.216-8.689-5.216-15.198h-2Zm21.313-12.359c2.142 0 3.912.676 5.228 1.946 1.325 1.278 2.276 3.241 2.607 5.964l1.986-.242c-.372-3.058-1.472-5.49-3.204-7.161-1.74-1.679-4.033-2.507-6.617-2.507v2Zm8.828 6.789h-17.774v2h17.774v-2Zm-16.782 1.13c.348-2.655 1.332-4.625 2.693-5.926 1.354-1.294 3.149-1.993 5.261-1.993v-2c-2.576 0-4.882.864-6.643 2.548-1.755 1.677-2.9 4.102-3.294 7.111l1.983.26Zm43.11 25.3-.945.327.233.673h.712v-1Zm12.852 0v1h.714l.231-.676-.945-.324Zm14.375-41.875.945.324.455-1.324h-1.4v1Zm-11.915 0v-1h-.764l-.201.738.965.262Zm-8.632 31.797v1h.764l.201-.738-.965-.262Zm-.235 0-.964.265.202.735h.762v-1Zm-8.75-31.797.964-.266-.202-.734h-.762v1Zm-12.187 0v-1h-1.404l.459 1.327.945-.327Zm14.492 42.875h12.852v-2h-12.852v2Zm13.797-.676 14.375-41.875-1.891-.649-14.375 41.875 1.891.649Zm13.43-43.199H358v2h11.915v-2Zm-12.88.738-8.632 31.796 1.93.525 8.633-31.797-1.931-.524Zm-7.667 31.059h-.235v2h.235v-2Zm.729.734-8.75-31.797-1.928.531 8.75 31.797 1.928-.531Zm-9.714-32.531h-12.187v2h12.187v-2Zm-13.132 1.327 14.492 41.875 1.89-.654-14.492-41.875-1.89.654ZM410.5 186.32l-.964-.263-.008.029-.006.029.978.205Zm.118-.43.964.263.345-1.263h-1.309v1Zm-10.469 0v-1h-.721l-.228.684.949.316Zm-.078.235.944.33.002-.007.002-.007-.948-.316Zm-17.93-5.665v-1h-1.018l.018 1.018 1-.018Zm28.828 0v1h1v-1h-1Zm-10.937-7.187v1h1.129l-.137-1.121-.992.121Zm-17.774 0-.991-.13-.148 1.13h1.139v-1Zm9.219 27.289c12.433 0 18.618-7.409 20.002-14.038l-1.957-.409c-1.194 5.715-6.572 12.447-18.045 12.447v2Zm19.988-13.979.117-.43-1.929-.526-.117.43 1.929.526Zm-.847-1.693h-10.469v2h10.469v-2Zm-11.418.684-.078.234 1.897.633.079-.235-1.898-.632Zm-.073.22c-.665 1.901-3.107 4.252-7.416 4.252v2c5.067 0 8.328-2.805 9.304-5.591l-1.888-.661Zm-7.416 4.252c-2.675 0-4.752-.89-6.184-2.461-1.444-1.585-2.33-3.973-2.386-7.142l-2 .035c.062 3.511 1.05 6.416 2.907 8.454 1.869 2.051 4.518 3.114 7.663 3.114v-2Zm-9.57-8.586h28.828v-2h-28.828v2Zm29.828-1v-3.515h-2v3.515h2Zm0-3.515c0-6.53-1.988-12.038-5.653-15.921-3.672-3.89-8.94-6.056-15.308-6.056v2c5.898 0 10.611 1.994 13.853 5.429 3.248 3.441 5.108 8.421 5.108 14.548h2Zm-20.961-21.977c-6.375 0-11.684 2.22-15.393 6.245-3.702 4.017-5.724 9.737-5.724 16.591h2c0-6.466 1.904-11.664 5.194-15.235 3.283-3.563 8.033-5.601 13.923-5.601v-2Zm-21.117 22.836v.039h2v-.039h-2Zm0 .039c0 6.89 2.001 12.588 5.761 16.571 3.767 3.989 9.195 6.148 15.825 6.148v-2c-6.183 0-11.047-2.001-14.37-5.521-3.33-3.527-5.216-8.689-5.216-15.198h-2Zm21.313-12.359c2.142 0 3.912.676 5.228 1.946 1.324 1.278 2.276 3.241 2.607 5.964l1.985-.242c-.372-3.058-1.471-5.49-3.203-7.161-1.74-1.679-4.033-2.507-6.617-2.507v2Zm8.828 6.789h-17.774v2h17.774v-2Zm-16.782 1.13c.348-2.655 1.332-4.625 2.693-5.926 1.354-1.294 3.149-1.993 5.261-1.993v-2c-2.576 0-4.882.864-6.644 2.548-1.755 1.677-2.899 4.102-3.293 7.111l1.983.26Zm33.891 25.3h-1v1h1v-1Zm11.406 0v1h1v-1h-1Zm0-56.368h1v-1h-1v1Zm-11.406 0v-1h-1v1h1Zm0 57.368h11.406v-2h-11.406v2Zm12.406-1v-56.368h-2v56.368h2Zm-1-57.368h-11.406v2h11.406v-2Zm-12.406 1v56.368h2v-56.368h-2Zm39.32 58.227c6.547 0 12.012-2.107 15.838-6.078 3.822-3.967 5.905-9.687 5.905-16.719h-2c0 6.64-1.961 11.818-5.346 15.332-3.381 3.509-8.287 5.465-14.397 5.465v2Zm21.743-22.797v-.078h-2v.078h2Zm0-.078c0-6.981-2.126-12.68-5.972-16.639-3.847-3.961-9.318-6.08-15.81-6.08v2c6.048 0 10.967 1.964 14.376 5.473 3.411 3.512 5.406 8.672 5.406 15.246h2Zm-21.782-22.719c-6.475 0-11.927 2.14-15.758 6.112-3.829 3.968-5.945 9.665-5.945 16.607h2c0-6.535 1.986-11.696 5.384-15.219 3.395-3.519 8.295-5.5 14.319-5.5v-2Zm-21.703 22.719v.078h2v-.078h-2Zm0 .078c0 7.011 2.062 12.731 5.874 16.703 3.817 3.977 9.283 6.094 15.868 6.094v-2c-6.148 0-11.054-1.966-14.425-5.478-3.375-3.518-5.317-8.697-5.317-15.319h-2Zm21.781 11.852c-2.501 0-4.492-1.017-5.89-2.938-1.426-1.959-2.289-4.939-2.289-8.914h-2c0 4.229.914 7.674 2.672 10.09 1.785 2.454 4.384 3.762 7.507 3.762v-2Zm-8.179-11.852v-.078h-2v.078h2Zm0-.078c0-3.911.871-6.874 2.294-8.831 1.399-1.923 3.373-2.942 5.807-2.942v-2c-3.073 0-5.649 1.324-7.425 3.766-1.75 2.408-2.676 5.832-2.676 10.007h2Zm8.101-11.773c2.457 0 4.452 1.021 5.864 2.946 1.436 1.957 2.316 4.918 2.316 8.827h2c0-4.177-.936-7.602-2.703-10.011-1.792-2.44-4.387-3.762-7.477-3.762v2Zm8.18 11.773v.078h2v-.078h-2Zm0 .078c0 3.954-.863 6.936-2.282 8.902-1.392 1.93-3.365 2.95-5.82 2.95v2c3.092 0 5.671-1.324 7.442-3.779 1.746-2.419 2.66-5.863 2.66-10.073h-2Zm18.5 34.61h-1v1h1v-1Zm11.406 0v1h1v-1h-1Zm0-20.821v-1h-1v1h1Zm.235 0 .909-.415-.267-.585h-.642v1Zm.039-27.422v1h.649l.264-.592-.913-.408Zm-.274 0h-1v1h1v-1Zm0-7.304h1v-1h-1v1Zm-11.406 0v-1h-1v1h1Zm0 56.547h11.406v-2h-11.406v2Zm12.406-1v-20.821h-2v20.821h2Zm-1-19.821h.235v-2h-.235v2Zm-.675-.584c2.437 5.335 7.531 8.592 13.878 8.592v-2c-5.605 0-9.964-2.837-12.059-7.423l-1.819.831Zm13.878 8.592c5.523 0 10.06-2.178 13.191-6.185 3.108-3.979 4.763-9.67 4.763-16.612h-2c0 6.652-1.588 11.859-4.339 15.381-2.729 3.492-6.669 5.416-11.615 5.416v2Zm17.954-22.797v-.039h-2v.039h2Zm0-.039c0-6.961-1.655-12.645-4.786-16.611-3.154-3.995-7.731-6.147-13.324-6.147v2c5.032 0 9.01 1.911 11.754 5.387 2.768 3.504 4.356 8.699 4.356 15.371h2Zm-18.11-22.758c-6.332 0-11.26 3.318-13.686 8.757l1.826.815c2.105-4.718 6.317-7.572 11.86-7.572v-2Zm-12.773 8.164h-.274v2h.274v-2Zm.726 1v-7.304h-2v7.304h2Zm-1-8.304h-11.406v2h11.406v-2Zm-12.406 1v55.547h2v-55.547h-2Zm21.703 32.281c-2.457 0-4.5-1.043-5.955-2.935-1.472-1.914-2.381-4.757-2.381-8.37h-2c0 3.927.986 7.236 2.795 9.589 1.827 2.376 4.452 3.716 7.541 3.716v-2Zm-8.336-11.305v-.039h-2v.039h2Zm0-.039c0-3.633.909-6.486 2.382-8.405 1.454-1.896 3.497-2.939 5.954-2.939v-2c-3.09 0-5.715 1.341-7.541 3.722-1.809 2.358-2.795 5.677-2.795 9.622h2Zm8.336-11.344c2.527 0 4.544 1.022 5.956 2.886 1.435 1.893 2.302 4.733 2.302 8.419h2c0-3.97-.93-7.283-2.708-9.627-1.8-2.375-4.413-3.678-7.55-3.678v2Zm8.258 11.305v.039h2v-.039h-2Zm0 .039c0 3.665-.866 6.517-2.304 8.427-1.415 1.88-3.432 2.917-5.954 2.917v2c3.143 0 5.755-1.327 7.552-3.714 1.775-2.358 2.706-5.678 2.706-9.63h-2Zm56.625 8.555-.965-.263-.008.029-.006.029.979.205Zm.117-.43.965.263.344-1.263h-1.309v1Zm-10.469 0v-1h-.72l-.228.684.948.316Zm-.078.235.944.33.003-.007.002-.007-.949-.316Zm-17.929-5.665v-1h-1.018l.018 1.018 1-.018Zm28.828 0v1h1v-1h-1Zm-10.938-7.187v1h1.129l-.136-1.121-.993.121Zm-17.773 0-.992-.13-.148 1.13h1.14v-1Zm9.219 27.289c12.433 0 18.617-7.409 20.002-14.038l-1.958-.409c-1.193 5.715-6.571 12.447-18.044 12.447v2Zm19.988-13.979.117-.43-1.93-.526-.117.43 1.93.526Zm-.848-1.693h-10.469v2h10.469v-2Zm-11.417.684-.078.234 1.897.633.078-.235-1.897-.632Zm-.074.22c-.665 1.901-3.107 4.252-7.415 4.252v2c5.067 0 8.328-2.805 9.303-5.591l-1.888-.661Zm-7.415 4.252c-2.675 0-4.753-.89-6.185-2.461-1.444-1.585-2.33-3.973-2.386-7.142l-1.999.035c.061 3.511 1.05 6.416 2.907 8.454 1.869 2.051 4.518 3.114 7.663 3.114v-2Zm-9.57-8.586h28.828v-2h-28.828v2Zm29.828-1v-3.515h-2v3.515h2Zm0-3.515c0-6.53-1.988-12.038-5.654-15.921-3.672-3.89-8.939-6.056-15.307-6.056v2c5.898 0 10.611 1.994 13.853 5.429 3.248 3.441 5.108 8.421 5.108 14.548h2Zm-20.961-21.977c-6.375 0-11.685 2.22-15.394 6.245-3.701 4.017-5.723 9.737-5.723 16.591h2c0-6.466 1.903-11.664 5.194-15.235 3.283-3.563 8.032-5.601 13.923-5.601v-2Zm-21.117 22.836v.039h2v-.039h-2Zm0 .039c0 6.89 2.001 12.588 5.761 16.571 3.766 3.989 9.195 6.148 15.825 6.148v-2c-6.183 0-11.048-2.001-14.371-5.521-3.33-3.527-5.215-8.689-5.215-15.198h-2Zm21.312-12.359c2.142 0 3.912.676 5.229 1.946 1.324 1.278 2.275 3.241 2.607 5.964l1.985-.242c-.372-3.058-1.471-5.49-3.204-7.161-1.74-1.679-4.032-2.507-6.617-2.507v2Zm8.828 6.789h-17.773v2h17.773v-2Zm-16.782 1.13c.348-2.655 1.333-4.625 2.693-5.926 1.354-1.294 3.15-1.993 5.261-1.993v-2c-2.576 0-4.882.864-6.643 2.548-1.755 1.677-2.899 4.102-3.294 7.111l1.983.26Zm33.618 25.3h-1v1h1v-1Zm11.406 0v1h1v-1h-1Zm13.047-32.266-.384.923 1.384.577v-1.5h-1Zm0-10.039h1v-.764l-.737-.201-.263.965Zm-12.812 7.734v1h.786l.186-.764-.972-.236Zm-.235 0h-1v1h1v-1Zm0-7.304h1v-1h-1v1Zm-11.406 0v-1h-1v1h1Zm0 42.875h11.406v-2h-11.406v2Zm12.406-1v-23.438h-2v23.438h2Zm0-23.438c0-2.874.773-4.96 2.069-6.322 1.289-1.356 3.226-2.131 5.838-2.131v-2c-3.013 0-5.53.905-7.287 2.752-1.751 1.841-2.62 4.482-2.62 7.701h2Zm7.907-8.453c1.581 0 2.993.23 3.756.548l.769-1.846c-1.112-.463-2.825-.702-4.525-.702v2Zm5.14-.375v-10.039h-2v10.039h2Zm-.737-11.004a13.852 13.852 0 0 0-3.544-.465v2c1.153 0 2.236.181 3.018.395l.526-1.93Zm-3.544-.465c-2.658 0-4.967.824-6.782 2.392-1.806 1.561-3.058 3.802-3.721 6.537l1.944.471c.587-2.422 1.659-4.263 3.085-5.495 1.417-1.224 3.249-1.905 5.474-1.905v-2Zm-9.531 8.164h-.235v2h.235v-2Zm.765 1v-7.304h-2v7.304h2Zm-1-8.304h-11.406v2h11.406v-2Zm-12.406 1v41.875h2v-41.875h-2Zm53.344 17.656-.21.978.005.001.205-.979Zm-7.109-1.524.209-.977-.001-.001-.208.978Zm7.812-3.671.992-.124v-.005l-.992.129Zm.039.312-.992.124.109.876h.883v-1Zm10.508 0v1h1v-1h-1Zm0-.391h1v-.018l-.001-.019-.999.037Zm-22.93 11.954-.207.978h.003l.204-.978Zm7.11 1.484.214-.977-.01-.002-.204.979Zm-9.18 3.633-.976.217.001.003.975-.22Zm-.078-.352.976-.217-.174-.783h-.802v1Zm-11.133 0v-1h-1.117l.123 1.111.994-.111Zm.039.352-.994.11v.002l.994-.112Zm18.945 14.281c5.546 0 10.35-1.385 13.795-3.915 3.469-2.546 5.526-6.234 5.526-10.679h-2c0 3.759-1.713 6.868-4.709 9.067-3.02 2.217-7.376 3.527-12.612 3.527v2Zm19.321-14.594v-.039h-2v.039h2Zm0-.039c0-3.303-.974-5.993-3.208-8.079-2.189-2.044-5.486-3.412-9.931-4.345l-.41 1.958c4.305.903 7.18 2.171 8.976 3.848 1.749 1.635 2.573 3.75 2.573 6.618h2Zm-13.135-12.423-7.109-1.523-.419 1.955 7.109 1.524.419-1.956Zm-7.11-1.524c-2.058-.438-3.284-.972-3.987-1.551-.637-.526-.886-1.121-.886-1.924h-2c0 1.346.475 2.528 1.614 3.467 1.076.886 2.681 1.504 4.842 1.965l.417-1.957Zm-4.873-3.475v-.039h-2v.039h2Zm0-.039c0-1.001.44-1.817 1.298-2.418.889-.623 2.269-1.035 4.109-1.035v-2c-2.106 0-3.929.467-5.257 1.397-1.358.952-2.15 2.363-2.15 4.056h2Zm5.407-3.453c1.931 0 3.369.517 4.35 1.293.976.772 1.565 1.85 1.728 3.109l1.984-.257c-.227-1.748-1.064-3.307-2.471-4.42-1.402-1.109-3.304-1.725-5.591-1.725v2Zm6.078 4.398.039.312 1.984-.248-.039-.312-1.984.248Zm1.031 1.188h10.508v-2h-10.508v2Zm11.508-1v-.391h-2v.391h2Zm-.001-.428c-.147-3.96-1.903-7.542-5.109-10.117-3.195-2.567-7.769-4.088-13.507-4.088v2c5.394 0 9.493 1.429 12.254 3.647 2.752 2.21 4.238 5.249 4.364 8.633l1.998-.075Zm-18.616-14.205c-5.481 0-10.096 1.324-13.368 3.774-3.299 2.47-5.171 6.046-5.171 10.351h2c0-3.663 1.565-6.65 4.37-8.75 2.831-2.12 6.985-3.375 12.169-3.375v-2Zm-18.539 14.125v.039h2v-.039h-2Zm0 .039c0 3.367 1.114 6.21 3.364 8.427 2.225 2.193 5.484 3.7 9.655 4.583l.414-1.957c-3.953-.836-6.807-2.219-8.665-4.05-1.832-1.806-2.768-4.119-2.768-7.003h-2Zm13.022 13.01 7.109 1.485.409-1.958-7.109-1.484-.409 1.957Zm7.1 1.483c2.009.44 3.194.946 3.869 1.503.603.498.852 1.076.852 1.934h2c0-1.369-.453-2.548-1.579-3.476-1.053-.869-2.623-1.457-4.714-1.915l-.428 1.954Zm4.721 3.437v.039h2v-.039h-2Zm0 .039c0 .968-.446 1.76-1.381 2.354-.976.62-2.495 1.021-4.533 1.021v2c2.26 0 4.198-.439 5.605-1.333 1.447-.919 2.309-2.315 2.309-4.042h-2Zm-5.914 3.375c-2.154 0-3.691-.452-4.751-1.188-1.043-.725-1.722-1.791-2.047-3.228l-1.95.441c.417 1.845 1.34 3.376 2.856 4.429 1.498 1.041 3.476 1.546 5.892 1.546v-2Zm-6.797-4.412-.078-.352-1.952.434.078.352 1.952-.434Zm-1.054-1.135h-11.133v2h11.133v-2Zm-12.127 1.111.039.351 1.988-.221-.039-.351-1.988.221Zm.039.353c.479 4.225 2.449 7.804 5.861 10.308 3.393 2.49 8.133 3.861 14.078 3.861v-2c-5.656 0-9.94-1.305-12.894-3.473-2.936-2.154-4.638-5.216-5.057-8.921l-1.988.225Z"/>
  </g>
  <g filter="url(#b)">
    <path stroke="url(#c)" stroke-width="2" d="m186.93 20.633 83 210"/>
  </g>
  <g filter="url(#d)">
    <path stroke="url(#e)" stroke-width="2" d="m296.93 20.633 83 210"/>
  </g>
  <path stroke="url(#f)" d="m186.465 20.817 83 210"/>
  <path stroke="url(#g)" d="m296.465 20.817 83 210"/>
  <defs>
    <linearGradient id="c" x1="268.449" x2="182.742" y1="232.488" y2="12.63" gradientUnits="userSpaceOnUse">
      <stop stop-color="#fff" stop-opacity="0"/>
      <stop offset=".073" stop-color="#fff" stop-opacity=".895"/>
      <stop offset=".889" stop-color="#fff"/>
      <stop offset=".962" stop-color="#fff" stop-opacity="0"/>
    </linearGradient>
    <linearGradient id="e" x1="378.449" x2="292.742" y1="232.488" y2="12.63" gradientUnits="userSpaceOnUse">
      <stop stop-color="#fff" stop-opacity="0"/>
      <stop offset=".073" stop-color="#fff" stop-opacity=".895"/>
      <stop offset=".889" stop-color="#fff"/>
      <stop offset=".962" stop-color="#fff" stop-opacity="0"/>
    </linearGradient>
    <linearGradient id="f" x1="268.449" x2="182.742" y1="232.488" y2="12.63" gradientUnits="userSpaceOnUse">
      <stop stop-color="#fff" stop-opacity="0"/>
      <stop offset=".073" stop-color="#fff" stop-opacity=".895"/>
      <stop offset=".889" stop-color="#fff"/>
      <stop offset=".962" stop-color="#fff" stop-opacity="0"/>
    </linearGradient>
    <linearGradient id="g" x1="378.449" x2="292.742" y1="232.488" y2="12.63" gradientUnits="userSpaceOnUse">
      <stop stop-color="#fff" stop-opacity="0"/>
      <stop offset=".073" stop-color="#fff" stop-opacity=".895"/>
      <stop offset=".889" stop-color="#fff"/>
      <stop offset=".962" stop-color="#fff" stop-opacity="0"/>
    </linearGradient>
    <filter id="b" width="124.86" height="250.735" x="166" y=".265" color-interpolation-filters="sRGB" filterUnits="userSpaceOnUse">
      <feFlood flood-opacity="0" result="BackgroundImageFix"/>
      <feBlend in="SourceGraphic" in2="BackgroundImageFix" result="shape"/>
      <feGaussianBlur result="effect1_foregroundBlur_2556_20859" stdDeviation="10"/>
    </filter>
    <filter id="d" width="124.86" height="250.735" x="276" y=".265" color-interpolation-filters="sRGB" filterUnits="userSpaceOnUse">
      <feFlood flood-opacity="0" result="BackgroundImageFix"/>
      <feBlend in="SourceGraphic" in2="BackgroundImageFix" result="shape"/>
      <feGaussianBlur result="effect1_foregroundBlur_2556_20859" stdDeviation="10"/>
    </filter>
  </defs>
</svg>
